<svg width="21" height="23" viewBox="0 0 21 23" fill="none" xmlns="http://www.w3.org/2000/svg">
<path d="M4.03882 1.14722L1.03882 5.14722V19.1472C1.03882 19.6776 1.24953 20.1864 1.6246 20.5614C1.99968 20.9365 2.50839 21.1472 3.03882 21.1472H17.0388C17.5693 21.1472 18.078 20.9365 18.453 20.5614C18.8281 20.1864 19.0388 19.6776 19.0388 19.1472V5.14722L16.0388 1.14722H4.03882Z" stroke="#181725" stroke-width="2" stroke-linecap="round" stroke-linejoin="round"/>
<path d="M1.03882 5.14722H19.0388" stroke="#181725" stroke-width="2" stroke-linecap="round" stroke-linejoin="round"/>
<path d="M14.0388 9.14722C14.0388 10.2081 13.6174 11.2255 12.8672 11.9756C12.1171 12.7258 11.0997 13.1472 10.0388 13.1472C8.97795 13.1472 7.96054 12.7258 7.21039 11.9756C6.46025 11.2255 6.03882 10.2081 6.03882 9.14722" stroke="#181725" stroke-width="2" stroke-linecap="round" stroke-linejoin="round"/>
</svg>
