<svg width="21" height="16" viewBox="0 0 21 16" fill="none" xmlns="http://www.w3.org/2000/svg">
<path d="M2.50732 0.485229H18.5073C18.946 0.485229 19.3702 0.649019 19.7085 0.946167L19.8481 1.08191C20.2053 1.46499 20.4077 1.98656 20.4077 2.53113V13.2567C20.4076 13.8012 20.2052 14.322 19.8481 14.705C19.4912 15.0877 19.0088 15.3016 18.5073 15.3016H2.50732C2.06858 15.3016 1.64446 15.1379 1.30615 14.8407L1.1665 14.705C0.809414 14.322 0.607021 13.8012 0.606934 13.2567V2.53113C0.606934 2.05474 0.761781 1.59606 1.03955 1.2323L1.1665 1.08191C1.52343 0.699207 2.00586 0.485229 2.50732 0.485229ZM2.40771 13.3563H18.6069V2.43054H2.40771V13.3563ZM11.5073 7.99402H16.5073C16.7437 7.99402 16.9717 8.09454 17.1411 8.27625C17.3106 8.45808 17.4076 8.70579 17.4077 8.9657C17.4077 9.2258 17.3107 9.47419 17.1411 9.65613C16.9717 9.83783 16.7437 9.93835 16.5073 9.93835H11.5073C11.271 9.93835 11.0429 9.83783 10.8735 9.65613C10.7039 9.47419 10.6069 9.2258 10.6069 8.9657C10.607 8.70579 10.7041 8.45808 10.8735 8.27625C11.0429 8.09454 11.271 7.99402 11.5073 7.99402ZM11.5073 4.77625H16.5073C16.7141 4.77625 16.9143 4.85312 17.0747 4.99402L17.1411 5.05847C17.3107 5.24041 17.4077 5.48882 17.4077 5.7489C17.4076 6.00881 17.3106 6.25653 17.1411 6.43835C16.9717 6.62006 16.7437 6.72058 16.5073 6.72058H11.5073C11.271 6.72058 11.0429 6.62006 10.8735 6.43835C10.704 6.25653 10.6071 6.00881 10.6069 5.7489C10.6069 5.52144 10.6811 5.30265 10.813 5.12976L10.8735 5.05847C11.0429 4.87677 11.271 4.77625 11.5073 4.77625Z" fill="#181725" stroke="white" stroke-width="0.2"/>
<g clip-path="url(#clip0_1_1297)">
<path d="M7.25749 5.58134V6.14404C7.25749 6.44845 7.11991 6.73442 6.88142 6.93736C6.63377 7.14953 6.31273 7.26945 5.97335 7.26945C5.63397 7.26945 5.30376 7.14953 5.06528 6.93736C4.8268 6.73442 4.68921 6.44845 4.68921 6.14404V5.58134C4.68921 5.28615 4.8268 5.00019 5.06528 4.78802C5.30376 4.57585 5.63397 4.45593 5.97335 4.45593C6.31273 4.45593 6.63377 4.57585 6.88142 4.78802C7.11991 5.00019 7.25749 5.28615 7.25749 5.58134Z" fill="#181725"/>
<path d="M8.22057 8.90212V9.36335C8.22057 9.58475 8.1105 9.80614 7.93623 9.96296C7.75278 10.1198 7.50512 10.212 7.25747 10.212H4.68918C4.43235 10.212 4.1847 10.1198 4.01042 9.96296C3.82697 9.80614 3.72607 9.58475 3.72607 9.36335V8.87445C3.72607 8.56081 3.83614 8.24717 4.03794 7.98888C4.23973 7.73059 4.52408 7.52765 4.85429 7.40773C4.90015 7.39851 4.93684 7.38928 4.9827 7.38928C5.02856 7.38928 5.06525 7.39851 5.11111 7.40773H6.75298C6.77133 7.40773 6.7805 7.40773 6.78967 7.41696C6.78967 7.40773 6.79884 7.40773 6.79884 7.40773C6.9456 7.39851 7.03733 7.40773 7.0465 7.40773C7.39505 7.52765 7.68857 7.73059 7.89954 7.99811C8.10133 8.26562 8.22057 8.57926 8.22057 8.90212Z" fill="#181725"/>
</g>
<defs>
<clipPath id="clip0_1_1297">
<rect width="6" height="7.68429" fill="white" transform="translate(3.50732 4.45593)"/>
</clipPath>
</defs>
</svg>
