<svg width="16" height="16" viewBox="0 0 16 16" fill="none" xmlns="http://www.w3.org/2000/svg">
<path d="M10.0847 4.53936L2.76727 11.8567L2.28878 13.4889L3.88779 13.0267L11.2295 5.68498L10.0847 4.53936ZM11.3331 3.29092L12.4779 4.43573L13.545 3.36864C13.6209 3.29273 13.6635 3.18978 13.6635 3.08244C13.6635 2.9751 13.6209 2.87215 13.545 2.79624L12.9718 2.22383C12.8959 2.14794 12.7929 2.10531 12.6856 2.10531C12.5782 2.10531 12.4753 2.14794 12.3994 2.22383L11.3339 3.29092H11.3331ZM14.1174 1.07902L14.6898 1.65143C15.0693 2.031 15.2824 2.54573 15.2824 3.08244C15.2824 3.61915 15.0693 4.13388 14.6898 4.51345L4.73789 14.4662L1.32128 15.4539C1.18201 15.4941 1.03452 15.4961 0.894204 15.4598C0.753886 15.4235 0.625885 15.3502 0.523564 15.2475C0.421243 15.1449 0.348354 15.0166 0.312507 14.8762C0.27666 14.7358 0.279169 14.5883 0.319772 14.4492L1.33018 11.0042L11.2562 1.07821C11.6357 0.69876 12.1505 0.485596 12.6872 0.485596C13.2239 0.485596 13.7386 0.69876 14.1182 1.07821L14.1174 1.07902Z" fill="#53B175"/>
</svg>
