<svg width="20" height="19" viewBox="0 0 20 19" fill="none" xmlns="http://www.w3.org/2000/svg">
<path d="M8.89955 14.1162C9.68748 14.1162 10.4677 13.961 11.1957 13.6595C11.9236 13.358 12.585 12.916 13.1422 12.3589C13.6993 11.8017 14.1413 11.1403 14.4428 10.4123C14.7444 9.68437 14.8996 8.90416 14.8996 8.11623C14.8996 7.32829 14.7444 6.54808 14.4428 5.82013C14.1413 5.09217 13.6993 4.43074 13.1422 3.87359C12.585 3.31643 11.9236 2.87448 11.1957 2.57295C10.4677 2.27142 9.68748 2.11623 8.89955 2.11623C7.30825 2.11623 5.78213 2.74837 4.65691 3.87359C3.53169 4.9988 2.89955 6.52493 2.89955 8.11623C2.89955 9.70753 3.53169 11.2336 4.65691 12.3589C5.78213 13.4841 7.30825 14.1162 8.89955 14.1162ZM15.2196 13.0222L18.7996 16.6022C18.895 16.6945 18.9711 16.8049 19.0234 16.927C19.0757 17.049 19.1032 17.1803 19.1043 17.313C19.1053 17.4458 19.08 17.5775 19.0296 17.7003C18.9792 17.8232 18.9049 17.9348 18.8109 18.0286C18.717 18.1224 18.6053 18.1966 18.4823 18.2468C18.3594 18.297 18.2277 18.3222 18.0949 18.321C17.9622 18.3197 17.831 18.292 17.709 18.2396C17.587 18.1871 17.4767 18.1108 17.3846 18.0152L13.8046 14.4352C12.197 15.6831 10.1743 16.2714 8.1483 16.0804C6.12226 15.8894 4.24516 14.9335 2.8991 13.4073C1.55305 11.881 0.839236 9.89917 0.902977 7.86515C0.966718 5.83113 1.80322 3.89785 3.2422 2.45887C4.68117 1.0199 6.61445 0.183393 8.64847 0.119652C10.6825 0.0559106 12.6644 0.769723 14.1906 2.11578C15.7169 3.46183 16.6728 5.33894 16.8637 7.36498C17.0547 9.39102 16.4664 11.4137 15.2186 13.0212L15.2196 13.0222Z" fill="#181B19"/>
</svg>
