<svg width="10" height="15" viewBox="0 0 10 15" fill="none" xmlns="http://www.w3.org/2000/svg">
<g clip-path="url(#clip0_1_1293)">
<path d="M1.22979 1.91564C1.03266 1.71564 0.923138 1.45248 0.93409 1.1788C0.93409 0.905111 1.04361 0.652478 1.25169 0.452479C1.44882 0.263005 1.72262 0.147215 2.00736 0.147215C2.29211 0.147215 2.5659 0.241953 2.77399 0.431426L8.97268 6.38932C9.07125 6.48406 9.14791 6.59985 9.20267 6.72616C9.25743 6.85248 9.29028 6.98932 9.29028 7.12616C9.29028 7.26301 9.25743 7.39985 9.20267 7.53669C9.14791 7.66301 9.07125 7.7788 8.97268 7.87353L2.77398 13.8314C2.67542 13.9262 2.55495 14.0104 2.42353 14.063C2.28116 14.1156 2.13878 14.1472 1.99641 14.1472C1.85404 14.1472 1.70071 14.1262 1.56929 14.0735C1.43787 14.0209 1.3174 13.9367 1.20788 13.842C1.10932 13.7472 1.03265 13.6209 0.977896 13.4946C0.912185 13.3683 0.890282 13.2314 0.890282 13.0841C0.890282 12.9472 0.923137 12.8104 0.977896 12.6841C1.03265 12.5577 1.12027 12.442 1.22979 12.3367L6.65091 7.12616L5.62144 6.14722L1.22979 1.91564Z" fill="#181725"/>
</g>
<defs>
<clipPath id="clip0_1_1293">
<rect width="8.4" height="14" fill="white" transform="translate(9.29028 14.1472) rotate(-180)"/>
</clipPath>
</defs>
</svg>
